<svg xmlns="http://www.w3.org/2000/svg" viewBox="0 0 900 700" role="img" aria-label="Crocheted turtle plush">
  <defs>
    <radialGradient id="bg" cx=".45" cy=".2" r=".8">
      <stop offset="0" stop-color="#fff6df"/>
      <stop offset="1" stop-color="#d9eee9"/>
    </radialGradient>
    <radialGradient id="shell" cx=".5" cy=".38" r=".6">
      <stop offset="0" stop-color="#8fd2ad"/>
      <stop offset="1" stop-color="#31785f"/>
    </radialGradient>
  </defs>
  <rect width="900" height="700" rx="38" fill="url(#bg)"/>
  <ellipse cx="455" cy="573" rx="274" ry="46" fill="#9b7d67" opacity=".18"/>
  <g fill="#65b89c" stroke="#31785f" stroke-width="16" stroke-linecap="round" stroke-linejoin="round">
    <ellipse cx="265" cy="428" rx="88" ry="66"/>
    <ellipse cx="641" cy="428" rx="88" ry="66"/>
    <ellipse cx="321" cy="537" rx="81" ry="54" transform="rotate(-18 321 537)"/>
    <ellipse cx="585" cy="537" rx="81" ry="54" transform="rotate(18 585 537)"/>
    <circle cx="452" cy="275" r="96"/>
  </g>
  <ellipse cx="452" cy="410" rx="229" ry="157" fill="url(#shell)" stroke="#275844" stroke-width="18"/>
  <g fill="none" stroke="#d8f4d2" stroke-width="13" stroke-linecap="round">
    <path d="M286 382c96-54 242-63 336-6"/>
    <path d="M253 438c116-65 283-72 401-3"/>
    <path d="M312 506c86-38 210-39 288 0"/>
    <path d="M370 276c-38 92-35 212 9 295"/>
    <path d="M462 257c-51 100-48 236 11 321"/>
    <path d="M553 283c-40 84-38 194 4 270"/>
  </g>
  <g fill="#1f2b2a">
    <circle cx="417" cy="250" r="13"/>
    <circle cx="489" cy="250" r="13"/>
  </g>
  <path d="M425 297c17 17 39 17 56 0" fill="none" stroke="#1f2b2a" stroke-width="10" stroke-linecap="round"/>
</svg>
