<svg xmlns="http://www.w3.org/2000/svg" viewBox="0 0 900 700" role="img" aria-label="Crocheted market tote bag">
  <defs>
    <linearGradient id="bg" x1="0" x2="1" y1="0" y2="1">
      <stop offset="0" stop-color="#f7e7cf"/>
      <stop offset="1" stop-color="#e6f0f5"/>
    </linearGradient>
    <linearGradient id="bag" x1=".25" x2=".75" y1="0" y2="1">
      <stop offset="0" stop-color="#f4c96f"/>
      <stop offset="1" stop-color="#b46c45"/>
    </linearGradient>
  </defs>
  <rect width="900" height="700" rx="38" fill="url(#bg)"/>
  <ellipse cx="450" cy="581" rx="245" ry="48" fill="#7e5c46" opacity=".18"/>
  <path d="M304 269c10-103 73-158 146-158s136 55 146 158" fill="none" stroke="#8b6145" stroke-width="44" stroke-linecap="round"/>
  <path d="M244 247h412l-40 318H284z" fill="url(#bag)" stroke="#8b6145" stroke-width="17" stroke-linejoin="round"/>
  <g fill="none" stroke="#ffe9ae" stroke-width="14" stroke-linecap="round" opacity=".86">
    <path d="M292 297h318"/>
    <path d="M282 353h338"/>
    <path d="M274 409h354"/>
    <path d="M268 465h366"/>
    <path d="M263 521h374"/>
    <path d="M324 260c-18 92-20 191-6 297"/>
    <path d="M392 260c-17 94-18 192-3 297"/>
    <path d="M461 260c-14 93-14 191 1 297"/>
    <path d="M530 260c-11 92-10 191 7 297"/>
    <path d="M591 260c-8 91-5 190 13 297"/>
  </g>
  <path d="M244 247h412l-40 318H284z" fill="none" stroke="#7d4e38" stroke-width="17" stroke-linejoin="round"/>
</svg>
